<svg xmlns="http://www.w3.org/2000/svg" viewBox="0 0 1200 630" width="1200" height="630">
  <defs>
    <radialGradient id="og" cx="50%" cy="40%" r="65%">
      <stop offset="0%" stop-color="#232323"/>
      <stop offset="100%" stop-color="#161616"/>
    </radialGradient>
  </defs>
  <rect width="1200" height="630" fill="url(#og)"/>
  <g stroke="#343444" stroke-width="1" opacity="0.4">
    <line x1="0" y1="0" x2="0" y2="630"/>
    <line x1="90" y1="0" x2="90" y2="630"/>
    <line x1="180" y1="0" x2="180" y2="630"/>
    <line x1="270" y1="0" x2="270" y2="630"/>
    <line x1="360" y1="0" x2="360" y2="630"/>
    <line x1="450" y1="0" x2="450" y2="630"/>
    <line x1="540" y1="0" x2="540" y2="630"/>
    <line x1="630" y1="0" x2="630" y2="630"/>
    <line x1="720" y1="0" x2="720" y2="630"/>
    <line x1="810" y1="0" x2="810" y2="630"/>
    <line x1="900" y1="0" x2="900" y2="630"/>
    <line x1="990" y1="0" x2="990" y2="630"/>
    <line x1="1080" y1="0" x2="1080" y2="630"/>
    <line x1="1170" y1="0" x2="1170" y2="630"/>
    <line x1="0" y1="0" x2="1200" y2="0"/>
    <line x1="0" y1="90" x2="1200" y2="90"/>
    <line x1="0" y1="180" x2="1200" y2="180"/>
    <line x1="0" y1="270" x2="1200" y2="270"/>
    <line x1="0" y1="360" x2="1200" y2="360"/>
    <line x1="0" y1="450" x2="1200" y2="450"/>
    <line x1="0" y1="540" x2="1200" y2="540"/>
    <line x1="0" y1="630" x2="1200" y2="630"/>
  </g>
  <g transform="translate(80, 236) scale(1.6)">
    <circle cx="40" cy="40" r="37" fill="#111111" stroke="#FFFFFF" stroke-width="3"/>
    <path d="M40 19 L57 26 L57 43 C57 52 49 58 40 62 C31 58 23 52 23 43 L23 26 Z"
          fill="none" stroke="#FFFFFF" stroke-width="2.5" stroke-linejoin="round"/>
    <path d="M32 33 L40 48 L48 33" fill="none" stroke="#FFFFFF" stroke-width="4"
          stroke-linecap="round" stroke-linejoin="round"/>
  </g>
  <text x="240" y="296" fill="#ffffff" font-family="ui-sans-serif, system-ui, sans-serif"
        font-size="64" font-weight="800" letter-spacing="2">TU NEGOCIO</text>
  <text x="242" y="340" fill="#FFFFFF" font-family="ui-monospace, monospace"
        font-size="22" letter-spacing="6.5">WRAP · PPF · DETALLADO</text>
</svg>